<?xml version="1.0" encoding="UTF-8" standalone="no"?>
<!DOCTYPE svg PUBLIC "-//W3C//DTD SVG 1.1//EN"
"http://www.w3.org/Graphics/SVG/1.1/DTD/svg11.dtd">
<svg viewBox="0 0 935 1210" version="1.1" xmlns="http://www.w3.org/2000/svg" xmlns:xlink="http://www.w3.org/1999/xlink">
<defs>
<style type="text/css"><![CDATA[
.g0_66{
fill: #FFF;
}
]]></style>
</defs>
<path d="M162.4,213h96.5v17.6H162.4Z" class="g0_66"/>
<path d="M162.4,230.6H790.5v17.3H162.4Z" class="g0_66"/>
<path d="M162.4,247.9h85.1v17.6H162.4Z" class="g0_66"/>
<path d="M162.4,283.1H823.2v17.6H162.4Z" class="g0_66"/>
<path d="M162.4,300.7H823.2v17.6H162.4Z" class="g0_66"/>
<path d="M162.4,318.3H823.2v17.6H162.4Z" class="g0_66"/>
<path d="M162.4,335.9H823.2v17.6H162.4Z" class="g0_66"/>
<path d="M162.4,353.5H823.2v17.6H162.4Z" class="g0_66"/>
<path d="M162.4,371.1H823.2v17.6H162.4Z" class="g0_66"/>
<path d="M162.4,388.7H823.2v17.6H162.4Z" class="g0_66"/>
<path d="M162.4,406.3H823.2v17.6H162.4Z" class="g0_66"/>
<path d="M162.4,423.9H823.2v17.2H162.4Z" class="g0_66"/>
<path d="M162.4,441.1H823.2v17.6H162.4Z" class="g0_66"/>
<path d="M162.4,458.7H823.2v17.6H162.4Z" class="g0_66"/>
<path d="M162.4,476.3H823.2v17.6H162.4Z" class="g0_66"/>
<path d="M162.4,493.9H823.2v17.6H162.4Z" class="g0_66"/>
<path d="M162.4,511.5H823.2v17.6H162.4Z" class="g0_66"/>
<path d="M162.4,529.1h59.1v17.6H162.4Z" class="g0_66"/>
<path d="M383.2,564.3H580.4v17.6H383.2Z" class="g0_66"/>
<path d="M619.7,845.2H823.2v17.6H619.7Z" class="g0_66"/>
<path d="M162.4,862.8H823.2v17.6H162.4Z" class="g0_66"/>
<path d="M162.4,880.4H404.8V898H162.4Z" class="g0_66"/>
<path d="M162.4,898H294.1v17.6H162.4Z" class="g0_66"/>
</svg>