<?xml version="1.0" encoding="UTF-8" standalone="no"?>
<!DOCTYPE svg PUBLIC "-//W3C//DTD SVG 1.1//EN"
"http://www.w3.org/Graphics/SVG/1.1/DTD/svg11.dtd">
<svg viewBox="0 0 909 1286" version="1.1" xmlns="http://www.w3.org/2000/svg" xmlns:xlink="http://www.w3.org/1999/xlink">
<defs>
<style type="text/css"><![CDATA[
.g0_2{
fill: none;
stroke: #000;
stroke-width: 0.763;
stroke-linejoin: round;
}
]]></style>
</defs>
<path d="M110.4,198.1H791.8M110.4,213.8H791.8M110.4,246H791.8M110.4,278.3H791.8M110.4,310.5H791.8M110.4,342.8H791.8M110.4,375H791.8M110.4,407.2H791.8M110.4,439.5H791.8M110.4,471.7H791.8M110.4,503.9H791.8M110.4,519.7H791.8M110.4,551.9H791.8M110.4,583.7H791.8M110.4,615.9H791.8M110.4,648.2H791.8M110.4,684.8H791.8M110.4,717.1H791.8M110.4,749.3H791.8m-681.4,48H791.8M110.4,829.5H791.8M110.4,861.7H791.8m-681.4,32H791.8M110.4,925.9H791.8m-681.4,48H791.8m-681.4,32.2H791.8m-681.4,32.3H791.8m-681.4,32.2H791.8m-681.4,32.2H791.8m-681.4,32.3H791.8m-681.4,32.2H791.8m-681.4,32.2H791.8M110.8,197.7V1199.9M174.5,197.7V1199.9M323.4,197.7V1199.9M791.4,197.7V1199.9" class="g0_2"/>
</svg>