<?xml version="1.0" encoding="UTF-8" standalone="no"?>
<!DOCTYPE svg PUBLIC "-//W3C//DTD SVG 1.1//EN"
"http://www.w3.org/Graphics/SVG/1.1/DTD/svg11.dtd">
<svg viewBox="0 0 935 1210" version="1.1" xmlns="http://www.w3.org/2000/svg" xmlns:xlink="http://www.w3.org/1999/xlink">
<defs>
<style type="text/css"><![CDATA[
.g0_25{
fill: #FFF;
}
]]></style>
</defs>
<path d="M138.6,265.8H825.4v21.3H138.6Z" class="g0_25"/>
<path d="M160.2,308.4H825.4V326H160.2Z" class="g0_25"/>
<path d="M160.2,326H825.4v17.6H160.2Z" class="g0_25"/>
<path d="M160.2,343.6H825.4v17.6H160.2Z" class="g0_25"/>
<path d="M160.2,361.2H825.4v17.6H160.2Z" class="g0_25"/>
<path d="M160.2,378.8H825.4v17.6H160.2Z" class="g0_25"/>
<path d="M160.2,396.4H825.4v17.2H160.2Z" class="g0_25"/>
<path d="M160.2,413.6H825.4v17.6H160.2Z" class="g0_25"/>
<path d="M160.2,431.2H825.4v17.6H160.2Z" class="g0_25"/>
<path d="M160.2,448.8H825.4v17.6H160.2Z" class="g0_25"/>
<path d="M160.2,466.4H825.4V484H160.2Z" class="g0_25"/>
<path d="M160.2,484H825.4v17.6H160.2Z" class="g0_25"/>
<path d="M160.2,501.6H825.4v17.6H160.2Z" class="g0_25"/>
<path d="M160.2,519.2H825.4v17.6H160.2Z" class="g0_25"/>
<path d="M160.2,536.8H825.4v17.6H160.2Z" class="g0_25"/>
<path d="M160.2,554.4H825.4V572H160.2Z" class="g0_25"/>
<path d="M160.2,572H825.4v17.6H160.2Z" class="g0_25"/>
<path d="M160.2,589.6H825.4v17.6H160.2Z" class="g0_25"/>
<path d="M160.2,607.2H825.4v17.2H160.2Z" class="g0_25"/>
<path d="M160.2,624.4H825.4V642H160.2Z" class="g0_25"/>
<path d="M160.2,642H825.4v17.6H160.2Z" class="g0_25"/>
<path d="M117,659.6H825.4v21.3H117Z" class="g0_25"/>
<path d="M117,680.9H825.4v20.9H117Z" class="g0_25"/>
<path d="M138.6,701.8H825.4v21.3H138.6Z" class="g0_25"/>
<path d="M160.2,723.1H825.4v17.6H160.2Z" class="g0_25"/>
<path d="M160.2,740.7H825.4v17.6H160.2Z" class="g0_25"/>
<path d="M160.2,758.3H825.4v17.2H160.2Z" class="g0_25"/>
<path d="M160.2,775.5H825.4v39.2H160.2Z" class="g0_25"/>
<path d="M160.2,814.7H825.4v17.6H160.2Z" class="g0_25"/>
<path d="M160.2,832.3H825.4v17.6H160.2Z" class="g0_25"/>
<path d="M160.2,849.9H825.4v17.3H160.2Z" class="g0_25"/>
<path d="M160.2,867.2H825.4v17.6H160.2Z" class="g0_25"/>
<path d="M160.2,884.8H825.4v17.6H160.2Z" class="g0_25"/>
<path d="M160.2,902.4H825.4V920H160.2Z" class="g0_25"/>
<path d="M160.2,920H825.4v17.6H160.2Z" class="g0_25"/>
<path d="M160.2,937.6H825.4v17.6H160.2Z" class="g0_25"/>
<path d="M160.2,955.2H825.4v17.6H160.2Z" class="g0_25"/>
<path d="M160.2,972.8H825.4v17.6H160.2Z" class="g0_25"/>
<path d="M160.2,990.4H825.4V1008H160.2Z" class="g0_25"/>
<path d="M160.2,1008H825.4v17.6H160.2Z" class="g0_25"/>
<path d="M160.2,1025.6H825.4v17.6H160.2Z" class="g0_25"/>
</svg>