<?xml version="1.0" encoding="UTF-8" standalone="no"?>
<!DOCTYPE svg PUBLIC "-//W3C//DTD SVG 1.1//EN"
"http://www.w3.org/Graphics/SVG/1.1/DTD/svg11.dtd">
<svg viewBox="0 0 935 1210" version="1.1" xmlns="http://www.w3.org/2000/svg" xmlns:xlink="http://www.w3.org/1999/xlink">
<defs>
<style type="text/css"><![CDATA[
.g0_28{
fill: #FFF;
}
]]></style>
</defs>
<path d="M140.8,174.2H612v21.2H140.8Z" class="g0_28"/>
<path d="M162.4,213h92.1v17.6H162.4Z" class="g0_28"/>
<path d="M507.5,511.5h97.9v17.6H507.5Z" class="g0_28"/>
<path d="M140.8,581.9H805.2v20.9H140.8Z" class="g0_28"/>
<path d="M162.4,620.4H289.3V638H162.4Z" class="g0_28"/>
<path d="M162.4,638H823.2v17.6H162.4Z" class="g0_28"/>
<path d="M162.4,655.6H344.7v17.6H162.4Z" class="g0_28"/>
<path d="M162.4,690.8H823.2v17.6H162.4Z" class="g0_28"/>
<path d="M162.4,708.4H823.2V726H162.4Z" class="g0_28"/>
<path d="M162.4,726H823.2v17.6H162.4Z" class="g0_28"/>
<path d="M162.4,743.6H823.2v17.2H162.4Z" class="g0_28"/>
<path d="M162.4,760.8H823.2v17.6H162.4Z" class="g0_28"/>
<path d="M162.4,778.4H823.2V796H162.4Z" class="g0_28"/>
<path d="M162.4,796H823.2v17.6H162.4Z" class="g0_28"/>
<path d="M162.4,813.6H823.2v17.6H162.4Z" class="g0_28"/>
<path d="M162.4,831.2H823.2v17.6H162.4Z" class="g0_28"/>
<path d="M162.4,848.8H823.2v17.6H162.4Z" class="g0_28"/>
<path d="M162.4,866.4H823.2V884H162.4Z" class="g0_28"/>
<path d="M162.4,884H823.2v17.6H162.4Z" class="g0_28"/>
<path d="M162.4,901.6H823.2v17.6H162.4Z" class="g0_28"/>
<path d="M162.4,919.2H554.8v17.6H162.4Z" class="g0_28"/>
</svg>