<?xml version="1.0" encoding="UTF-8" standalone="no"?>
<!DOCTYPE svg PUBLIC "-//W3C//DTD SVG 1.1//EN"
"http://www.w3.org/Graphics/SVG/1.1/DTD/svg11.dtd">
<svg viewBox="0 0 935 1210" version="1.1" xmlns="http://www.w3.org/2000/svg" xmlns:xlink="http://www.w3.org/1999/xlink">
<defs>
<style type="text/css"><![CDATA[
.g0_62{
fill: #FFF;
}
.g1_62{
fill: #000;
}
]]></style>
</defs>
<path d="M160.2,746.9H825.4v17.6H160.2Z" class="g0_62"/>
<path d="M160.2,764.5H825.4v17.6H160.2Z" class="g0_62"/>
<path d="M160.2,782.1H825.4v17.6H160.2Z" class="g0_62"/>
<path d="M160.2,799.7H825.4v17.6H160.2Z" class="g0_62"/>
<path d="M160.2,817.3H825.4v17.6H160.2Z" class="g0_62"/>
<path d="M160.2,834.9H825.4v17.6H160.2Z" class="g0_62"/>
<path d="M160.2,852.5H825.4v17.6H160.2Z" class="g0_62"/>
<path d="M160.2,870.1H825.4v17.2H160.2Z" class="g0_62"/>
<path d="M225.9,885.9h8.4v.7h-8.4Z" class="g1_62"/>
<path d="M160.2,887.3H825.4v17.6H160.2Z" class="g0_62"/>
<path d="M160.2,904.9H825.4v17.6H160.2Z" class="g0_62"/>
<path d="M160.2,922.5H825.4v17.6H160.2Z" class="g0_62"/>
<path d="M160.2,940.1H825.4v17.6H160.2Z" class="g0_62"/>
<path d="M554.4,956.3h8.4v.7h-8.4Z" class="g1_62"/>
<path d="M160.2,957.7H825.4v17.6H160.2Z" class="g0_62"/>
<path d="M160.2,975.3H825.4v17.6H160.2Z" class="g0_62"/>
<path d="M160.2,992.9H825.4v17.6H160.2Z" class="g0_62"/>
<path d="M160.2,1010.5H825.4v17.6H160.2Z" class="g0_62"/>
<path d="M160.2,1028.1H825.4v17.6H160.2Z" class="g0_62"/>
<path d="M160.2,1045.7H825.4v17.6H160.2Z" class="g0_62"/>
<path d="M160.2,1063.3H825.4v17.3H160.2Z" class="g0_62"/>
<path d="M160.2,1080.6H825.4v17.6H160.2Z" class="g0_62"/>
<path d="M160.2,1098.2H825.4v17.6H160.2Z" class="g0_62"/>
<path d="M160.2,1115.8H825.4v17.6H160.2Z" class="g0_62"/>
</svg>