<?xml version="1.0" encoding="UTF-8" standalone="no"?>
<!DOCTYPE svg PUBLIC "-//W3C//DTD SVG 1.1//EN"
"http://www.w3.org/Graphics/SVG/1.1/DTD/svg11.dtd">
<svg viewBox="0 0 935 1210" version="1.1" xmlns="http://www.w3.org/2000/svg" xmlns:xlink="http://www.w3.org/1999/xlink">
<defs>
<style type="text/css"><![CDATA[
.g0_118{
fill: #FFF;
}
]]></style>
</defs>
<path d="M346.9,191.8H823.2v17.6H346.9Z" class="g0_118"/>
<path d="M162.4,209.4H823.2V227H162.4Z" class="g0_118"/>
<path d="M347.6,682.4H823.2V700H347.6Z" class="g0_118"/>
<path d="M162.4,700H387.6v17.6H162.4Z" class="g0_118"/>
<path d="M297.4,717.6h371v17.6h-371Z" class="g0_118"/>
<path d="M218.9,752.8H660.4v17.6H218.9Z" class="g0_118"/>
<path d="M668.4,752.8H823.2v17.6H668.4Z" class="g0_118"/>
<path d="M162.4,770.4H823.2V788H162.4Z" class="g0_118"/>
<path d="M162.4,788H823.2v17.6H162.4Z" class="g0_118"/>
<path d="M162.4,805.6H823.2v17.2H162.4Z" class="g0_118"/>
<path d="M162.4,822.8H556.2v17.6H162.4Z" class="g0_118"/>
<path d="M350.2,840.4h473V858h-473Z" class="g0_118"/>
<path d="M162.4,858H823.2v17.6H162.4Z" class="g0_118"/>
<path d="M162.4,875.6H823.2v17.6H162.4Z" class="g0_118"/>
<path d="M162.4,893.2H823.2v17.6H162.4Z" class="g0_118"/>
<path d="M162.4,910.8H280.1v17.6H162.4Z" class="g0_118"/>
</svg>