<?xml version="1.0" encoding="UTF-8" standalone="no"?>
<!DOCTYPE svg PUBLIC "-//W3C//DTD SVG 1.1//EN"
"http://www.w3.org/Graphics/SVG/1.1/DTD/svg11.dtd">
<svg viewBox="0 0 935 1210" version="1.1" xmlns="http://www.w3.org/2000/svg" xmlns:xlink="http://www.w3.org/1999/xlink">
<defs>
<style type="text/css"><![CDATA[
.g0_170{
fill: #FFF;
}
]]></style>
</defs>
<path d="M160.2,191.8H825v17.6H160.2Z" class="g0_170"/>
<path d="M160.2,209.4H825V227H160.2Z" class="g0_170"/>
<path d="M138.6,227H825v20.9H138.6Z" class="g0_170"/>
<path d="M138.6,247.9H825v21.2H138.6Z" class="g0_170"/>
<path d="M160.2,269.1H825.4v17.6H160.2Z" class="g0_170"/>
<path d="M160.2,286.7H825.4v17.6H160.2Z" class="g0_170"/>
<path d="M160.2,304.3H825.4v17.6H160.2Z" class="g0_170"/>
<path d="M160.2,321.9H825.4v17.6H160.2Z" class="g0_170"/>
<path d="M160.2,339.5H825v17.3H160.2Z" class="g0_170"/>
<path d="M160.2,356.8H825v17.6H160.2Z" class="g0_170"/>
<path d="M160.2,374.4H825V392H160.2Z" class="g0_170"/>
<path d="M160.2,392H825v17.6H160.2Z" class="g0_170"/>
<path d="M160.2,409.6H825v17.6H160.2Z" class="g0_170"/>
<path d="M160.2,427.2H825v17.6H160.2Z" class="g0_170"/>
<path d="M160.2,444.8H825v17.6H160.2Z" class="g0_170"/>
<path d="M160.2,462.4H825V480H160.2Z" class="g0_170"/>
<path d="M160.2,480H825v17.6H160.2Z" class="g0_170"/>
<path d="M160.2,497.6H825v17.6H160.2Z" class="g0_170"/>
<path d="M160.2,515.2H825v17.6H160.2Z" class="g0_170"/>
<path d="M160.2,532.8H825v17.6H160.2Z" class="g0_170"/>
<path d="M160.2,550.4H825v17.2H160.2Z" class="g0_170"/>
<path d="M160.2,567.6H825v17.6H160.2Z" class="g0_170"/>
<path d="M160.2,585.2H825v17.6H160.2Z" class="g0_170"/>
<path d="M160.2,602.8H825v17.6H160.2Z" class="g0_170"/>
<path d="M160.2,620.4H825V638H160.2Z" class="g0_170"/>
<path d="M160.2,638H825v17.6H160.2Z" class="g0_170"/>
<path d="M160.2,655.6H825v17.6H160.2Z" class="g0_170"/>
<path d="M160.2,673.2H825v17.6H160.2Z" class="g0_170"/>
<path d="M160.2,690.8H825v17.6H160.2Z" class="g0_170"/>
<path d="M160.2,708.4H825V726H160.2Z" class="g0_170"/>
<path d="M160.2,726H825v17.6H160.2Z" class="g0_170"/>
<path d="M160.2,743.6H825v17.2H160.2Z" class="g0_170"/>
<path d="M160.2,760.8H825v17.6H160.2Z" class="g0_170"/>
<path d="M160.2,778.4H825V796H160.2Z" class="g0_170"/>
<path d="M160.2,796H825.4v17.6H160.2Z" class="g0_170"/>
<path d="M160.2,813.6H825.4v17.6H160.2Z" class="g0_170"/>
<path d="M138.6,831.2H825.4v21.3H138.6Z" class="g0_170"/>
<path d="M138.6,852.5H825.4v20.9H138.6Z" class="g0_170"/>
<path d="M160.2,873.4H825.4V891H160.2Z" class="g0_170"/>
<path d="M160.2,891H825.4v17.6H160.2Z" class="g0_170"/>
<path d="M160.2,908.6H825.4v17.6H160.2Z" class="g0_170"/>
<path d="M160.2,926.2H825.4v17.6H160.2Z" class="g0_170"/>
<path d="M160.2,943.8H825.4v17.6H160.2Z" class="g0_170"/>
<path d="M160.2,961.4H825.4V979H160.2Z" class="g0_170"/>
<path d="M160.2,979H825.4v17.6H160.2Z" class="g0_170"/>
<path d="M160.2,996.6H825.4v17.2H160.2Z" class="g0_170"/>
<path d="M160.2,1013.8H825.4v17.6H160.2Z" class="g0_170"/>
<path d="M160.2,1031.4H825.4V1049H160.2Z" class="g0_170"/>
<path d="M160.2,1049H825.4v17.6H160.2Z" class="g0_170"/>
<path d="M160.2,1066.6H825.4v17.6H160.2Z" class="g0_170"/>
<path d="M160.2,1084.2H825.4v17.6H160.2Z" class="g0_170"/>
</svg>