<?xml version="1.0" encoding="UTF-8" standalone="no"?>
<!DOCTYPE svg PUBLIC "-//W3C//DTD SVG 1.1//EN"
"http://www.w3.org/Graphics/SVG/1.1/DTD/svg11.dtd">
<svg viewBox="0 0 909 1286" version="1.1" xmlns="http://www.w3.org/2000/svg" xmlns:xlink="http://www.w3.org/1999/xlink">
<defs>
<style type="text/css"><![CDATA[
.g0_3{
fill: none;
stroke: #000;
stroke-width: 0.763;
stroke-linejoin: round;
}
]]></style>
</defs>
<path d="M110.4,108.9H791.8M110.4,124.6H791.8M110.4,140.3H791.8M110.4,172.1H791.8M110.4,204.3H791.8M110.4,236.6H791.8M110.4,268.5H791.8M110.4,284.2H791.8M110.4,316.5H791.8M110.4,364H791.8M110.4,412H791.8M110.4,460.7H791.8m-681.4,26H791.8M110.4,518.9H791.8M110.4,550.7H791.8M110.4,582.9H791.8M110.4,598.7H791.8M110.4,614.4H791.8M110.4,646.6H791.8M110.4,662.4H791.8M110.4,678.1H791.8M110.4,725.6H791.8M110.4,757.9H791.8M110.4,790.1H791.8M110.4,833.3H791.8M110.4,865.6H791.8M110.4,897.8H791.8M110.4,930H791.8M110.4,945.8H791.8M110.4,978H791.8m-681.4,30.1H791.8m-681.4,32.2H791.8m-681.4,48H791.8m-681.4,32.2H791.8m-681.4,32.3H791.8M110.8,108.5V1153.2M174.5,108.5V1153.2M323.4,108.5V1153.2M791.4,108.5V1153.2" class="g0_3"/>
</svg>