<?xml version="1.0" encoding="UTF-8" standalone="no"?>
<!DOCTYPE svg PUBLIC "-//W3C//DTD SVG 1.1//EN"
"http://www.w3.org/Graphics/SVG/1.1/DTD/svg11.dtd">
<svg viewBox="0 0 935 1210" version="1.1" xmlns="http://www.w3.org/2000/svg" xmlns:xlink="http://www.w3.org/1999/xlink">
<defs>
<style type="text/css"><![CDATA[
.g0_150{
fill: #FFF;
}
]]></style>
</defs>
<path d="M140.8,104.1H812.2V125H140.8Z" class="g0_150"/>
<path d="M162.4,125H275.7v21.3H162.4Z" class="g0_150"/>
<path d="M160.2,146.3H825.4v17.2H160.2Z" class="g0_150"/>
<path d="M160.2,163.5H825.4v17.6H160.2Z" class="g0_150"/>
<path d="M162.4,163.5H619.7v17.6H162.4Z" class="g0_150"/>
<path d="M160.2,181.1H825.4v17.6H160.2Z" class="g0_150"/>
<path d="M162.4,181.1H491v17.6H162.4Z" class="g0_150"/>
<path d="M160.2,198.7H825.4v17.6H160.2Z" class="g0_150"/>
<path d="M160.2,216.3H825.4v17.6H160.2Z" class="g0_150"/>
<path d="M160.2,233.9H825.4v17.6H160.2Z" class="g0_150"/>
<path d="M160.2,251.5H825.4v17.6H160.2Z" class="g0_150"/>
<path d="M160.2,269.1H825.4v17.6H160.2Z" class="g0_150"/>
<path d="M160.2,286.7H825.4v17.6H160.2Z" class="g0_150"/>
<path d="M160.2,304.3H825.4v17.6H160.2Z" class="g0_150"/>
<path d="M160.2,321.9H825.4v17.6H160.2Z" class="g0_150"/>
<path d="M160.2,339.5H825.4v17.3H160.2Z" class="g0_150"/>
<path d="M160.2,356.8H825.4v17.6H160.2Z" class="g0_150"/>
<path d="M160.2,374.4H825.4V392H160.2Z" class="g0_150"/>
<path d="M160.2,392H825.4v17.6H160.2Z" class="g0_150"/>
<path d="M160.2,409.6H825.4v17.6H160.2Z" class="g0_150"/>
<path d="M160.2,427.2H825.4v17.6H160.2Z" class="g0_150"/>
<path d="M160.2,444.8H825.4v17.6H160.2Z" class="g0_150"/>
<path d="M160.2,462.4H825.4V480H160.2Z" class="g0_150"/>
<path d="M345.8,462.4H823.2V480H345.8Z" class="g0_150"/>
<path d="M160.2,480H825.4v17.6H160.2Z" class="g0_150"/>
<path d="M162.4,480H823.2v17.6H162.4Z" class="g0_150"/>
<path d="M160.2,497.6H825.4v17.6H160.2Z" class="g0_150"/>
<path d="M162.4,497.6H823.2v17.6H162.4Z" class="g0_150"/>
<path d="M160.2,515.2H825.4v17.6H160.2Z" class="g0_150"/>
<path d="M162.4,515.2H595.8v17.6H162.4Z" class="g0_150"/>
<path d="M162.4,532.8H823.2v17.6H162.4Z" class="g0_150"/>
<path d="M162.4,550.4H823.2v17.2H162.4Z" class="g0_150"/>
<path d="M162.4,567.6H672.5v17.6H162.4Z" class="g0_150"/>
</svg>