<?xml version="1.0" encoding="UTF-8" standalone="no"?>
<!DOCTYPE svg PUBLIC "-//W3C//DTD SVG 1.1//EN"
"http://www.w3.org/Graphics/SVG/1.1/DTD/svg11.dtd">
<svg viewBox="0 0 935 1210" version="1.1" xmlns="http://www.w3.org/2000/svg" xmlns:xlink="http://www.w3.org/1999/xlink">
<defs>
<style type="text/css"><![CDATA[
.g0_15{
fill: #FFF;
}
]]></style>
</defs>
<path d="M146.7,191.8H715V213H146.7Z" class="g0_15"/>
<path d="M162.4,213h11.8v17.6H162.4Z" class="g0_15"/>
<path d="M162.4,230.6H671.7v17.3H162.4Z" class="g0_15"/>
<path d="M162.4,247.9H823.2v17.6H162.4Z" class="g0_15"/>
<path d="M162.4,265.5H510.8v17.6H162.4Z" class="g0_15"/>
<path d="M162.4,300.7H823.2v17.6H162.4Z" class="g0_15"/>
<path d="M162.4,318.3H823.2v17.6H162.4Z" class="g0_15"/>
<path d="M162.4,335.9H823.2v17.6H162.4Z" class="g0_15"/>
<path d="M162.4,353.5H502.7v17.6H162.4Z" class="g0_15"/>
<path d="M162.4,371.1H823.2v17.6H162.4Z" class="g0_15"/>
<path d="M162.4,388.7H823.2v17.6H162.4Z" class="g0_15"/>
<path d="M162.4,406.3H572v17.6H162.4Z" class="g0_15"/>
<path d="M162.4,423.9h57.2v17.2H162.4Z" class="g0_15"/>
<path d="M244.9,423.9H823.2v17.2H244.9Z" class="g0_15"/>
<path d="M162.4,441.1H823.2v17.6H162.4Z" class="g0_15"/>
<path d="M162.4,458.7H823.2v17.6H162.4Z" class="g0_15"/>
<path d="M162.4,476.3H823.2v17.6H162.4Z" class="g0_15"/>
<path d="M162.4,493.9H823.2v17.6H162.4Z" class="g0_15"/>
<path d="M162.4,511.5h75.2v17.6H162.4Z" class="g0_15"/>
<path d="M162.4,529.1H823.2v17.6H162.4Z" class="g0_15"/>
<path d="M162.4,546.7H280.5v17.6H162.4Z" class="g0_15"/>
<path d="M162.4,581.9H823.2v17.6H162.4Z" class="g0_15"/>
<path d="M162.4,599.5H823.2v17.6H162.4Z" class="g0_15"/>
<path d="M162.4,617.1H489.5v17.6H162.4Z" class="g0_15"/>
<path d="M140.8,669.5h664v21.3h-664Z" class="g0_15"/>
<path d="M162.4,690.8h73.4v20.9H162.4Z" class="g0_15"/>
<path d="M162.4,820.6h91.3v17.6H162.4Z" class="g0_15"/>
<path d="M535,855.8H823.2v17.6H535Z" class="g0_15"/>
<path d="M162.4,873.4H823.2V891H162.4Z" class="g0_15"/>
<path d="M162.4,891H591.8v17.6H162.4Z" class="g0_15"/>
<path d="M162.4,908.6H331.1v17.6H162.4Z" class="g0_15"/>
<path d="M162.4,979h58v17.6h-58Z" class="g0_15"/>
<path d="M162.4,1084.2H362.3v17.6H162.4Z" class="g0_15"/>
<path d="M495.4,1101.8H823.2v17.6H495.4Z" class="g0_15"/>
</svg>