<?xml version="1.0" encoding="UTF-8" standalone="no"?>
<!DOCTYPE svg PUBLIC "-//W3C//DTD SVG 1.1//EN"
"http://www.w3.org/Graphics/SVG/1.1/DTD/svg11.dtd">
<svg viewBox="0 0 909 1286" version="1.1" xmlns="http://www.w3.org/2000/svg" xmlns:xlink="http://www.w3.org/1999/xlink">
<defs>
<style type="text/css"><![CDATA[
.g0_4{
fill: none;
stroke: #000;
stroke-width: 0.763;
stroke-linejoin: round;
}
]]></style>
</defs>
<path d="M110.4,108.9H791.8M110.4,124.6H791.8M110.4,174.1H791.8m-681.4,48H791.8M110.4,254.3H791.8M110.4,270H791.8M110.4,302.3H791.8M110.4,350.2H791.8M110.4,382.5H791.8M110.4,414.7H791.8M110.4,430.8H791.8M110.4,463H791.8M110.4,495.2H791.8M110.4,511.3H791.8M110.4,543.5H791.8M110.4,575.7H791.8M110.4,608H791.8M110.4,623.7H791.8M110.4,656H791.8M110.4,688.2H791.8m-681.4,38H791.8M110.4,789.9H791.8M110.4,806H791.8M110.4,838.2H791.8M110.4,870.5H791.8M110.4,902.7H791.8M110.4,934.9H791.8M110.4,967.2H791.8M110.4,999.4H791.8m-681.4,32.2H791.8m-681.4,32.3H791.8m-681.4,32.2H791.8m-681.4,32.2H791.8m-681.4,32.3H791.8M110.8,108.5V1161M174.5,108.5V1161M323.4,108.5V1161M791.4,108.5V1161" class="g0_4"/>
</svg>