<?xml version="1.0" encoding="UTF-8" standalone="no"?>
<!DOCTYPE svg PUBLIC "-//W3C//DTD SVG 1.1//EN"
"http://www.w3.org/Graphics/SVG/1.1/DTD/svg11.dtd">
<svg viewBox="0 0 935 1210" version="1.1" xmlns="http://www.w3.org/2000/svg" xmlns:xlink="http://www.w3.org/1999/xlink">
<defs>
<style type="text/css"><![CDATA[
.g0_57{
fill: #FFF;
}
]]></style>
</defs>
<path d="M488.4,184.8H661.1v17.6H488.4Z" class="g0_57"/>
<path d="M160.2,483.3H825.4v17.6H160.2Z" class="g0_57"/>
<path d="M160.2,500.9H825.4v17.6H160.2Z" class="g0_57"/>
<path d="M138.6,518.5H825.4v21.2H138.6Z" class="g0_57"/>
<path d="M138.6,539.7H825.4v20.9H138.6Z" class="g0_57"/>
<path d="M160.2,648.6H825.4v17.6H160.2Z" class="g0_57"/>
<path d="M160.2,666.2H825.4v17.6H160.2Z" class="g0_57"/>
<path d="M160.2,683.8H825.4v17.6H160.2Z" class="g0_57"/>
<path d="M160.2,701.4H825.4v17.3H160.2Z" class="g0_57"/>
<path d="M160.2,718.7H825.4v17.6H160.2Z" class="g0_57"/>
<path d="M160.2,736.3H825.4v17.6H160.2Z" class="g0_57"/>
<path d="M160.2,753.9H825.4v17.6H160.2Z" class="g0_57"/>
<path d="M160.2,771.5H825.4v17.6H160.2Z" class="g0_57"/>
<path d="M160.2,789.1H825.4v17.6H160.2Z" class="g0_57"/>
<path d="M160.2,806.7H825.4v17.6H160.2Z" class="g0_57"/>
<path d="M160.2,824.3H825.4v17.6H160.2Z" class="g0_57"/>
<path d="M160.2,841.9H825.4v17.6H160.2Z" class="g0_57"/>
<path d="M160.2,859.5H825.4v17.6H160.2Z" class="g0_57"/>
<path d="M160.2,877.1H825.4v17.6H160.2Z" class="g0_57"/>
<path d="M160.2,894.7H825.4v17.6H160.2Z" class="g0_57"/>
<path d="M160.2,912.3H825.4v17.2H160.2Z" class="g0_57"/>
<path d="M160.2,929.5H825.4v17.6H160.2Z" class="g0_57"/>
<path d="M206.1,1080.6H825v17.6H206.1Z" class="g0_57"/>
<path d="M162.4,1098.2H825v17.6H162.4Z" class="g0_57"/>
</svg>