<?xml version="1.0" encoding="UTF-8" standalone="no"?>
<!DOCTYPE svg PUBLIC "-//W3C//DTD SVG 1.1//EN"
"http://www.w3.org/Graphics/SVG/1.1/DTD/svg11.dtd">
<svg viewBox="0 0 935 1210" version="1.1" xmlns="http://www.w3.org/2000/svg" xmlns:xlink="http://www.w3.org/1999/xlink">
<defs>
<style type="text/css"><![CDATA[
.g0_30{
fill: #FFF;
}
]]></style>
</defs>
<path d="M160.2,342.8H825.4v17.6H160.2Z" class="g0_30"/>
<path d="M160.2,360.4H825.4V378H160.2Z" class="g0_30"/>
<path d="M160.2,378H825.4v17.6H160.2Z" class="g0_30"/>
<path d="M160.2,395.6H825.4v17.6H160.2Z" class="g0_30"/>
<path d="M160.2,413.2H825.4v17.6H160.2Z" class="g0_30"/>
<path d="M160.2,430.8H825.4v17.6H160.2Z" class="g0_30"/>
<path d="M160.2,448.4H825.4V466H160.2Z" class="g0_30"/>
<path d="M160.2,466H825.4v17.3H160.2Z" class="g0_30"/>
<path d="M160.2,483.3H825.4v17.6H160.2Z" class="g0_30"/>
<path d="M160.2,500.9H825.4v17.6H160.2Z" class="g0_30"/>
<path d="M160.2,518.5H825.4v17.6H160.2Z" class="g0_30"/>
<path d="M160.2,536.1H825.4v17.6H160.2Z" class="g0_30"/>
<path d="M160.2,553.7H825.4v17.6H160.2Z" class="g0_30"/>
<path d="M160.2,571.3H825.4v17.6H160.2Z" class="g0_30"/>
<path d="M160.2,588.9H825.4v17.6H160.2Z" class="g0_30"/>
<path d="M160.2,606.5H825.4v17.6H160.2Z" class="g0_30"/>
<path d="M160.2,624.1H825.4v17.6H160.2Z" class="g0_30"/>
<path d="M160.2,641.7H825.4v17.6H160.2Z" class="g0_30"/>
<path d="M160.2,659.3H825.4v17.2H160.2Z" class="g0_30"/>
<path d="M160.2,862.8H825.4v17.6H160.2Z" class="g0_30"/>
<path d="M160.2,880.4H825.4V898H160.2Z" class="g0_30"/>
<path d="M160.2,898H825.4v17.6H160.2Z" class="g0_30"/>
<path d="M160.2,915.6H825.4v17.6H160.2Z" class="g0_30"/>
<path d="M160.2,933.2H825.4v17.6H160.2Z" class="g0_30"/>
<path d="M160.2,950.8H825.4v17.6H160.2Z" class="g0_30"/>
<path d="M160.2,968.4H825.4V986H160.2Z" class="g0_30"/>
<path d="M160.2,986H825.4v17.6H160.2Z" class="g0_30"/>
<path d="M160.2,1003.6H825.4v17.6H160.2Z" class="g0_30"/>
<path d="M160.2,1021.2H825.4v17.2H160.2Z" class="g0_30"/>
<path d="M160.2,1038.4H825.4V1056H160.2Z" class="g0_30"/>
<path d="M160.2,1056H825.4v17.6H160.2Z" class="g0_30"/>
<path d="M160.2,1073.6H825.4v17.6H160.2Z" class="g0_30"/>
<path d="M160.2,1091.2H825.4v17.6H160.2Z" class="g0_30"/>
<path d="M160.2,1108.8H825.4v17.6H160.2Z" class="g0_30"/>
</svg>