<?xml version="1.0" encoding="UTF-8" standalone="no"?>
<!DOCTYPE svg PUBLIC "-//W3C//DTD SVG 1.1//EN"
"http://www.w3.org/Graphics/SVG/1.1/DTD/svg11.dtd">
<svg viewBox="0 0 935 1210" version="1.1" xmlns="http://www.w3.org/2000/svg" xmlns:xlink="http://www.w3.org/1999/xlink">
<defs>
<style type="text/css"><![CDATA[
.g0_77{
fill: #FFF;
}
]]></style>
</defs>
<path d="M140.8,210.8H583v21.3H140.8Z" class="g0_77"/>
<path d="M162.4,249.7H349.8v17.6H162.4Z" class="g0_77"/>
<path d="M162.4,267.3H823.2v17.6H162.4Z" class="g0_77"/>
<path d="M162.4,284.9H284.2v17.6H162.4Z" class="g0_77"/>
<path d="M162.4,302.5h89.5v17.2H162.4Z" class="g0_77"/>
<path d="M162.4,372.5H318.6v17.6H162.4Z" class="g0_77"/>
<path d="M322.7,372.5H823.2v17.6H322.7Z" class="g0_77"/>
<path d="M162.4,390.1H823.2v17.6H162.4Z" class="g0_77"/>
<path d="M162.4,407.7H823.2v17.6H162.4Z" class="g0_77"/>
<path d="M162.4,425.3H823.2v17.6H162.4Z" class="g0_77"/>
<path d="M162.4,442.9H363v17.6H162.4Z" class="g0_77"/>
<path d="M162.4,460.5H823.2v17.6H162.4Z" class="g0_77"/>
<path d="M162.4,478.1H823.2v17.6H162.4Z" class="g0_77"/>
<path d="M162.4,495.7H273.5V513H162.4Z" class="g0_77"/>
<path d="M162.4,513H357.1v17.6H162.4Z" class="g0_77"/>
<path d="M367.8,513H823.2v17.6H367.8Z" class="g0_77"/>
<path d="M162.4,530.6H823.2v17.6H162.4Z" class="g0_77"/>
<path d="M162.4,548.2H823.2v17.6H162.4Z" class="g0_77"/>
<path d="M162.4,565.8h97.9v17.6H162.4Z" class="g0_77"/>
<path d="M162.4,583.4H823.2V601H162.4Z" class="g0_77"/>
<path d="M162.4,601H561v17.6H162.4Z" class="g0_77"/>
</svg>