<?xml version="1.0" encoding="UTF-8" standalone="no"?>
<!DOCTYPE svg PUBLIC "-//W3C//DTD SVG 1.1//EN"
"http://www.w3.org/Graphics/SVG/1.1/DTD/svg11.dtd">
<svg viewBox="0 0 935 1210" version="1.1" xmlns="http://www.w3.org/2000/svg" xmlns:xlink="http://www.w3.org/1999/xlink">
<defs>
<style type="text/css"><![CDATA[
.g0_47{
fill: #FFF;
}
]]></style>
</defs>
<path d="M384.6,388.7H489.1v17.6H384.6Z" class="g0_47"/>
<path d="M654.5,388.7H774.8v17.6H654.5Z" class="g0_47"/>
<path d="M448.4,476.3H823.2v17.6H448.4Z" class="g0_47"/>
<path d="M162.4,493.9H262.5v17.6H162.4Z" class="g0_47"/>
<path d="M276.8,493.9H583.7v17.6H276.8Z" class="g0_47"/>
<path d="M213.8,511.5H563.9v17.6H213.8Z" class="g0_47"/>
<path d="M574.6,511.5H823.2v17.6H574.6Z" class="g0_47"/>
<path d="M162.4,529.1H823.2v17.6H162.4Z" class="g0_47"/>
<path d="M162.4,546.7H823.2v17.6H162.4Z" class="g0_47"/>
<path d="M162.4,564.3H303.6v17.6H162.4Z" class="g0_47"/>
<path d="M732.6,581.9h90.6v17.6H732.6Z" class="g0_47"/>
<path d="M162.4,599.5H777v17.6H162.4Z" class="g0_47"/>
</svg>