<?xml version="1.0" encoding="UTF-8" standalone="no"?>
<!DOCTYPE svg PUBLIC "-//W3C//DTD SVG 1.1//EN"
"http://www.w3.org/Graphics/SVG/1.1/DTD/svg11.dtd">
<svg viewBox="0 0 935 1210" version="1.1" xmlns="http://www.w3.org/2000/svg" xmlns:xlink="http://www.w3.org/1999/xlink">
<defs>
<style type="text/css"><![CDATA[
.g0_16{
fill: #FFF;
}
.g1_16{
fill: #000;
}
]]></style>
</defs>
<path d="M162.4,104.1h58v17.3h-58Z" class="g0_16"/>
<path d="M162.4,174.2H823.2v17.6H162.4Z" class="g0_16"/>
<path d="M162.4,191.8H438.9v17.6H162.4Z" class="g0_16"/>
<path d="M160.2,374.4H825.4V392H160.2Z" class="g0_16"/>
<path d="M160.2,392H825.4v17.6H160.2Z" class="g0_16"/>
<path d="M160.2,409.6H825.4v17.6H160.2Z" class="g0_16"/>
<path d="M160.2,427.2H825.4v17.6H160.2Z" class="g0_16"/>
<path d="M160.2,444.8H825.4v17.6H160.2Z" class="g0_16"/>
<path d="M160.2,462.4H825.4V480H160.2Z" class="g0_16"/>
<path d="M160.2,480H825.4v17.6H160.2Z" class="g0_16"/>
<path d="M160.2,497.6H825.4v17.6H160.2Z" class="g0_16"/>
<path d="M160.2,515.2H825.4v17.6H160.2Z" class="g0_16"/>
<path d="M160.2,690.8H825.4v17.6H160.2Z" class="g0_16"/>
<path d="M162.4,690.8H823.2v17.6H162.4Z" class="g0_16"/>
<path d="M160.2,708.4H825.4V726H160.2Z" class="g0_16"/>
<path d="M162.4,708.4H420.2V726H162.4Z" class="g0_16"/>
<path d="M162.4,790.9H318.6v1.5H162.4Z" class="g1_16"/>
</svg>