<?xml version="1.0" encoding="UTF-8" standalone="no"?>
<!DOCTYPE svg PUBLIC "-//W3C//DTD SVG 1.1//EN"
"http://www.w3.org/Graphics/SVG/1.1/DTD/svg11.dtd">
<svg viewBox="0 0 909 1286" version="1.1" xmlns="http://www.w3.org/2000/svg" xmlns:xlink="http://www.w3.org/1999/xlink">
<defs>
<style type="text/css"><![CDATA[
.g0_6{
fill: none;
stroke: #000;
stroke-width: 0.763;
stroke-linejoin: round;
}
]]></style>
</defs>
<path d="M110.4,108.9H791.8M110.4,141.1H791.8M110.4,173H791.8M110.4,205.3H791.8M110.4,237.5H791.8M110.4,269.3H791.8M110.4,285H791.8M110.4,300.7H791.8M110.4,333H791.8M110.4,364.8H791.8M110.4,397H791.8M110.4,429.2H791.8m-681.4,32H791.8M110.4,476.7H791.8M110.4,509H791.8M110.4,558H791.8M110.4,590.3H791.8M110.4,622.5H791.8M110.4,654.7H791.8M110.8,108.5V655.1M174.5,108.5V655.1M323.4,108.5V655.1m468,-546.6V655.1" class="g0_6"/>
</svg>