<?xml version="1.0" encoding="UTF-8" standalone="no"?>
<!DOCTYPE svg PUBLIC "-//W3C//DTD SVG 1.1//EN"
"http://www.w3.org/Graphics/SVG/1.1/DTD/svg11.dtd">
<svg viewBox="0 0 935 1210" version="1.1" xmlns="http://www.w3.org/2000/svg" xmlns:xlink="http://www.w3.org/1999/xlink">
<defs>
<style type="text/css"><![CDATA[
.g0_136{
fill: #FFF;
}
]]></style>
</defs>
<path d="M537.2,444.8h286v17.6h-286Z" class="g0_136"/>
<path d="M162.4,462.4H823.2V480H162.4Z" class="g0_136"/>
<path d="M162.4,480H823.2v17.6H162.4Z" class="g0_136"/>
<path d="M162.4,497.6H804.8v17.6H162.4Z" class="g0_136"/>
<path d="M140.8,778.4H823.2v21.3H140.8Z" class="g0_136"/>
<path d="M162.4,799.7H312.8v20.9H162.4Z" class="g0_136"/>
<path d="M249.3,838.2H422.8v17.6H249.3Z" class="g0_136"/>
<path d="M162.4,891H823.2v17.6H162.4Z" class="g0_136"/>
<path d="M162.4,908.6H823.2v17.6H162.4Z" class="g0_136"/>
<path d="M162.4,926.2H513v17.6H162.4Z" class="g0_136"/>
<path d="M587.4,943.8H823.2v17.6H587.4Z" class="g0_136"/>
<path d="M162.4,961.4h67.9V979H162.4Z" class="g0_136"/>
<path d="M162.4,1049H319.7v17.6H162.4Z" class="g0_136"/>
</svg>