<?xml version="1.0" encoding="UTF-8" standalone="no"?>
<!DOCTYPE svg PUBLIC "-//W3C//DTD SVG 1.1//EN"
"http://www.w3.org/Graphics/SVG/1.1/DTD/svg11.dtd">
<svg viewBox="0 0 935 1210" version="1.1" xmlns="http://www.w3.org/2000/svg" xmlns:xlink="http://www.w3.org/1999/xlink">
<defs>
<style type="text/css"><![CDATA[
.g0_37{
fill: #FFF;
}
.g1_37{
fill: #FCFCFC;
}
]]></style>
</defs>
<path d="M160.2,664H825.4v18.7H160.2Z" class="g0_37"/>
<path d="M160.2,682.7H825.4v17.6H160.2Z" class="g0_37"/>
<path d="M160.2,700.3H825.4v17.6H160.2Z" class="g0_37"/>
<path d="M160.2,717.9H825.4v17.6H160.2Z" class="g0_37"/>
<path d="M160.2,735.5H825.4v17.6H160.2Z" class="g0_37"/>
<path d="M160.2,753.1H825.4v17.6H160.2Z" class="g0_37"/>
<path d="M160.2,770.7H825.4V788H160.2Z" class="g0_37"/>
<path d="M160.2,788H825.4v17.6H160.2Z" class="g0_37"/>
<path d="M160.2,805.6H825.4v17.6H160.2Z" class="g0_37"/>
<path d="M160.2,823.2H825.4v17.6H160.2Z" class="g0_37"/>
<path d="M160.2,840.8H825.4v17.6H160.2Z" class="g0_37"/>
<path d="M160.2,858.4H825.4V876H160.2Z" class="g0_37"/>
<path d="M160.2,876H825.4v17.6H160.2Z" class="g0_37"/>
<path d="M160.2,1034H825.4v17.6H160.2Z" class="g0_37"/>
<path d="M160.2,1051.6H825.4v17.6H160.2Z" class="g0_37"/>
<path d="M381,1051.6H556.2v17.6H381Z" class="g1_37"/>
<path d="M160.2,1069.2H825.4v17.6H160.2Z" class="g0_37"/>
</svg>