<?xml version="1.0" encoding="UTF-8" standalone="no"?>
<!DOCTYPE svg PUBLIC "-//W3C//DTD SVG 1.1//EN"
"http://www.w3.org/Graphics/SVG/1.1/DTD/svg11.dtd">
<svg viewBox="0 0 935 1210" version="1.1" xmlns="http://www.w3.org/2000/svg" xmlns:xlink="http://www.w3.org/1999/xlink">
<defs>
<style type="text/css"><![CDATA[
.g0_35{
fill: #FFF;
}
]]></style>
</defs>
<path d="M160.2,104.1H825.4v17.3H160.2Z" class="g0_35"/>
<path d="M160.2,121.4H825.4V139H160.2Z" class="g0_35"/>
<path d="M160.2,139H825.4v17.6H160.2Z" class="g0_35"/>
<path d="M160.2,156.6H825.4v17.6H160.2Z" class="g0_35"/>
<path d="M160.2,174.2H825.4v17.6H160.2Z" class="g0_35"/>
<path d="M138.6,191.8H825.4V213H138.6Z" class="g0_35"/>
<path d="M160.2,213H825.4v17.6H160.2Z" class="g0_35"/>
<path d="M160.2,230.6H825.4v17.3H160.2Z" class="g0_35"/>
<path d="M160.2,247.9H825.4v17.6H160.2Z" class="g0_35"/>
<path d="M140.8,529.1H757.9v21.3H140.8Z" class="g0_35"/>
<path d="M162.4,550.4h80.7v20.9H162.4Z" class="g0_35"/>
<path d="M162.4,588.9h80.3v17.6H162.4Z" class="g0_35"/>
<path d="M162.4,606.5H353.5v17.6H162.4Z" class="g0_35"/>
<path d="M162.4,641.7H823.2v17.6H162.4Z" class="g0_35"/>
<path d="M162.4,659.3H823.2v17.2H162.4Z" class="g0_35"/>
<path d="M162.4,676.5H823.2v17.6H162.4Z" class="g0_35"/>
<path d="M162.4,694.1H823.2v17.6H162.4Z" class="g0_35"/>
<path d="M162.4,711.7H823.2v17.6H162.4Z" class="g0_35"/>
<path d="M162.4,729.3h165v17.6h-165Z" class="g0_35"/>
<path d="M140.8,782.1H796V803H140.8Z" class="g0_35"/>
<path d="M162.4,803H372.2v21.3H162.4Z" class="g0_35"/>
<path d="M162.4,841.9H298.8v17.6H162.4Z" class="g0_35"/>
<path d="M162.4,859.5H404.1v17.6H162.4Z" class="g0_35"/>
</svg>