<?xml version="1.0" encoding="UTF-8" standalone="no"?>
<!DOCTYPE svg PUBLIC "-//W3C//DTD SVG 1.1//EN"
"http://www.w3.org/Graphics/SVG/1.1/DTD/svg11.dtd">
<svg viewBox="0 0 909 1286" version="1.1" xmlns="http://www.w3.org/2000/svg" xmlns:xlink="http://www.w3.org/1999/xlink">
<defs>
<style type="text/css"><![CDATA[
.g0_5{
fill: none;
stroke: #000;
stroke-width: 0.763;
stroke-linejoin: round;
}
]]></style>
</defs>
<path d="M110.4,108.9H791.8M110.4,141.1H791.8m-681.4,16H791.8M110.4,198.2H791.8M110.4,213.8H791.8M110.4,246H791.8M110.4,278.3H791.8M110.4,310.5H791.8M110.4,342.8H791.8M110.4,374.7H791.8M110.4,424.5H791.8m-681.4,16H791.8M110.4,472.8H791.8M110.4,505H791.8M110.4,536.8H791.8M110.4,569H791.8M110.4,601.3H791.8M110.4,633.2H791.8M110.4,665.4H791.8M110.4,697.7H791.8M110.4,729.4H791.8M110.4,745.2H791.8M110.4,777.4H791.8M110.4,809.6H791.8M110.4,841.9H791.8M110.4,857.6H791.8M110.4,889.9H791.8m-681.4,16H791.8M110.4,938.1H791.8M110.4,953.9H791.8M110.4,986.1H791.8m-681.4,31.8H791.8m-681.4,32.2H791.8m-681.4,15.8H791.8m-681.4,32.2H791.8m-681.4,32.2H791.8M110.8,108.5V1130.7M174.5,108.5V1130.7M323.4,108.5V1130.7M791.4,108.5V1130.7" class="g0_5"/>
</svg>