<?xml version="1.0" encoding="UTF-8" standalone="no"?>
<!DOCTYPE svg PUBLIC "-//W3C//DTD SVG 1.1//EN"
"http://www.w3.org/Graphics/SVG/1.1/DTD/svg11.dtd">
<svg viewBox="0 0 935 1210" version="1.1" xmlns="http://www.w3.org/2000/svg" xmlns:xlink="http://www.w3.org/1999/xlink">
<defs>
<style type="text/css"><![CDATA[
.g0_121{
fill: #F7F7F7;
}
]]></style>
</defs>
<path d="M254.5,233.9H763.4v17.6H254.5Z" class="g0_121"/>
<path d="M769.6,233.9h53.6v17.6H769.6Z" class="g0_121"/>
<path d="M162.4,251.5H622.6v17.6H162.4Z" class="g0_121"/>
<path d="M630.7,251.5H823.2v17.6H630.7Z" class="g0_121"/>
<path d="M162.4,269.1H485.8v17.6H162.4Z" class="g0_121"/>
<path d="M491.7,269.1H823.2v17.6H491.7Z" class="g0_121"/>
<path d="M162.4,286.7H344.7v17.6H162.4Z" class="g0_121"/>
<path d="M344.7,286.7H823.2v17.6H344.7Z" class="g0_121"/>
<path d="M162.4,304.3h95v17.6h-95Z" class="g0_121"/>
<path d="M313.1,321.9H823.2v17.6H313.1Z" class="g0_121"/>
<path d="M162.4,339.5H689.3v17.3H162.4Z" class="g0_121"/>
<path d="M695.6,339.5H823.2v17.3H695.6Z" class="g0_121"/>
<path d="M162.4,356.8H509.7v17.6H162.4Z" class="g0_121"/>
<path d="M514.8,356.8H823.2v17.6H514.8Z" class="g0_121"/>
<path d="M162.4,374.4H342.1V392H162.4Z" class="g0_121"/>
<path d="M345.8,374.4H648.3V392H345.8Z" class="g0_121"/>
<path d="M239.4,462.4H737.7V480H239.4Z" class="g0_121"/>
<path d="M737.7,462.4h85.5V480H737.7Z" class="g0_121"/>
<path d="M162.4,480H608.7v17.6H162.4Z" class="g0_121"/>
<path d="M609.8,480H823.2v17.6H609.8Z" class="g0_121"/>
<path d="M162.4,497.6H404.8v17.6H162.4Z" class="g0_121"/>
<path d="M410.7,497.6H823.2v17.6H410.7Z" class="g0_121"/>
<path d="M162.4,515.2H278.3v17.6H162.4Z" class="g0_121"/>
<path d="M280.5,515.2H823.2v17.6H280.5Z" class="g0_121"/>
<path d="M162.4,532.8H365.6v17.6H162.4Z" class="g0_121"/>
</svg>