<?xml version="1.0" encoding="UTF-8" standalone="no"?>
<!DOCTYPE svg PUBLIC "-//W3C//DTD SVG 1.1//EN"
"http://www.w3.org/Graphics/SVG/1.1/DTD/svg11.dtd">
<svg viewBox="0 0 935 1210" version="1.1" xmlns="http://www.w3.org/2000/svg" xmlns:xlink="http://www.w3.org/1999/xlink">
<defs>
<style type="text/css"><![CDATA[
.g0_138{
fill: #FFF;
}
]]></style>
</defs>
<path d="M140.8,332.2H770v21.3H140.8Z" class="g0_138"/>
<path d="M162.4,353.5H559.2v20.9H162.4Z" class="g0_138"/>
<path d="M162.4,462.4H823.2V480H162.4Z" class="g0_138"/>
<path d="M162.4,480H823.2v17.6H162.4Z" class="g0_138"/>
<path d="M162.4,497.6H823.2v17.6H162.4Z" class="g0_138"/>
<path d="M162.4,515.2H344.3v17.6H162.4Z" class="g0_138"/>
<path d="M162.4,532.8H823.2v17.6H162.4Z" class="g0_138"/>
<path d="M162.4,550.4H823.2v17.2H162.4Z" class="g0_138"/>
<path d="M162.4,567.6H823.2v17.6H162.4Z" class="g0_138"/>
<path d="M162.4,585.2H823.2v17.6H162.4Z" class="g0_138"/>
<path d="M162.4,602.8H823.2v17.6H162.4Z" class="g0_138"/>
<path d="M162.4,620.4H823.2V638H162.4Z" class="g0_138"/>
<path d="M162.4,638H823.2v17.6H162.4Z" class="g0_138"/>
<path d="M162.4,655.6H823.2v17.6H162.4Z" class="g0_138"/>
<path d="M162.4,673.2H823.2v17.6H162.4Z" class="g0_138"/>
<path d="M162.4,690.8H823.2v17.6H162.4Z" class="g0_138"/>
<path d="M162.4,708.4H823.2V726H162.4Z" class="g0_138"/>
<path d="M162.4,726H418v17.6H162.4Z" class="g0_138"/>
<path d="M162.4,743.6H823.2v17.2H162.4Z" class="g0_138"/>
<path d="M162.4,760.8H823.2v17.6H162.4Z" class="g0_138"/>
<path d="M162.4,778.4H823.2V796H162.4Z" class="g0_138"/>
<path d="M162.4,796H823.2v17.6H162.4Z" class="g0_138"/>
<path d="M162.4,813.6h60.9v17.6H162.4Z" class="g0_138"/>
</svg>