<?xml version="1.0" encoding="UTF-8" standalone="no"?>
<!DOCTYPE svg PUBLIC "-//W3C//DTD SVG 1.1//EN"
"http://www.w3.org/Graphics/SVG/1.1/DTD/svg11.dtd">
<svg viewBox="0 0 935 1210" version="1.1" xmlns="http://www.w3.org/2000/svg" xmlns:xlink="http://www.w3.org/1999/xlink">
<defs>
<style type="text/css"><![CDATA[
.g0_54{
fill: #FFF;
}
]]></style>
</defs>
<path d="M117,402.6H825.4v17.6H117Z" class="g0_54"/>
<path d="M117,420.2H825.4v20.9H117Z" class="g0_54"/>
<path d="M138.6,441.1H825.4v21.3H138.6Z" class="g0_54"/>
<path d="M138.6,462.4H825.4v20.9H138.6Z" class="g0_54"/>
<path d="M138.6,483.3H825.4v21.2H138.6Z" class="g0_54"/>
<path d="M160.2,504.5H825.4v17.6H160.2Z" class="g0_54"/>
<path d="M160.2,522.1H825.4v17.6H160.2Z" class="g0_54"/>
<path d="M160.2,539.7H825.4v20.6H160.2Z" class="g0_54"/>
<path d="M160.2,560.3H825.4v20.5H160.2Z" class="g0_54"/>
<path d="M160.2,580.8H825.4v20.9H160.2Z" class="g0_54"/>
<path d="M160.2,601.7H825.4v17.2H160.2Z" class="g0_54"/>
<path d="M160.2,618.9H825.4v17.6H160.2Z" class="g0_54"/>
<path d="M160.2,636.5H825.4v17.6H160.2Z" class="g0_54"/>
<path d="M160.2,654.1H825.4v17.6H160.2Z" class="g0_54"/>
<path d="M160.2,671.7H825.4v17.6H160.2Z" class="g0_54"/>
<path d="M160.2,689.3H825.4v17.6H160.2Z" class="g0_54"/>
<path d="M160.2,706.9H825.4v17.6H160.2Z" class="g0_54"/>
<path d="M160.2,724.5H825.4v17.6H160.2Z" class="g0_54"/>
<path d="M160.2,742.1H825.4v17.6H160.2Z" class="g0_54"/>
<path d="M160.2,759.7H825.4v17.6H160.2Z" class="g0_54"/>
<path d="M160.2,777.3H825.4v17.6H160.2Z" class="g0_54"/>
<path d="M160.2,794.9H825.4v17.3H160.2Z" class="g0_54"/>
<path d="M160.2,812.2H825.4v17.6H160.2Z" class="g0_54"/>
<path d="M160.2,829.8H825.4v17.6H160.2Z" class="g0_54"/>
<path d="M160.2,847.4H825.4V865H160.2Z" class="g0_54"/>
<path d="M160.2,865H825.4v17.6H160.2Z" class="g0_54"/>
<path d="M160.2,882.6H825.4v17.6H160.2Z" class="g0_54"/>
<path d="M160.2,900.2H825.4v17.6H160.2Z" class="g0_54"/>
<path d="M160.2,917.8H825.4v17.6H160.2Z" class="g0_54"/>
</svg>