<?xml version="1.0" encoding="UTF-8" standalone="no"?>
<!DOCTYPE svg PUBLIC "-//W3C//DTD SVG 1.1//EN"
"http://www.w3.org/Graphics/SVG/1.1/DTD/svg11.dtd">
<svg viewBox="0 0 935 1210" version="1.1" xmlns="http://www.w3.org/2000/svg" xmlns:xlink="http://www.w3.org/1999/xlink">
<defs>
<style type="text/css"><![CDATA[
.g0_116{
fill: #FFF;
}
]]></style>
</defs>
<path d="M133.1,406.3H784.7v20.9H133.1Z" class="g0_116"/>
<path d="M162.4,444.8H823.2v17.6H162.4Z" class="g0_116"/>
<path d="M162.4,462.4H658.9V480H162.4Z" class="g0_116"/>
<path d="M162.4,480H518.8v17.6H162.4Z" class="g0_116"/>
<path d="M162.4,497.6H823.2v17.6H162.4Z" class="g0_116"/>
<path d="M162.4,515.2H823.2v17.6H162.4Z" class="g0_116"/>
<path d="M162.4,532.8H759v17.6H162.4Z" class="g0_116"/>
<path d="M162.4,567.6H823.2v17.6H162.4Z" class="g0_116"/>
<path d="M162.4,585.2H823.2v17.6H162.4Z" class="g0_116"/>
<path d="M162.4,602.8H823.2v17.6H162.4Z" class="g0_116"/>
<path d="M162.4,620.4H581.5V638H162.4Z" class="g0_116"/>
<path d="M162.4,638H823.2v17.6H162.4Z" class="g0_116"/>
<path d="M162.4,655.6H823.2v17.6H162.4Z" class="g0_116"/>
<path d="M162.4,673.2h491v17.6h-491Z" class="g0_116"/>
<path d="M162.4,690.8H823.2v17.6H162.4Z" class="g0_116"/>
<path d="M162.4,708.4H750.6V726H162.4Z" class="g0_116"/>
<path d="M162.4,726H823.2v17.6H162.4Z" class="g0_116"/>
<path d="M162.4,743.6H823.2v17.2H162.4Z" class="g0_116"/>
<path d="M162.4,760.8H823.2v17.6H162.4Z" class="g0_116"/>
<path d="M162.4,778.4H823.2V796H162.4Z" class="g0_116"/>
<path d="M162.4,796H746.2v17.6H162.4Z" class="g0_116"/>
<path d="M162.4,813.6H538.3v17.6H162.4Z" class="g0_116"/>
<path d="M542.7,813.6H823.2v17.6H542.7Z" class="g0_116"/>
<path d="M162.4,831.2H472.6v17.6H162.4Z" class="g0_116"/>
</svg>