<?xml version="1.0" encoding="UTF-8" standalone="no"?>
<!DOCTYPE svg PUBLIC "-//W3C//DTD SVG 1.1//EN"
"http://www.w3.org/Graphics/SVG/1.1/DTD/svg11.dtd">
<svg viewBox="0 0 935 1210" version="1.1" xmlns="http://www.w3.org/2000/svg" xmlns:xlink="http://www.w3.org/1999/xlink">
<defs>
<style type="text/css"><![CDATA[
.g0_31{
fill: #FFF;
}
]]></style>
</defs>
<path d="M160.2,104.1H825.4v17.3H160.2Z" class="g0_31"/>
<path d="M160.2,121.4H825.4V139H160.2Z" class="g0_31"/>
<path d="M160.2,139H825.4v17.6H160.2Z" class="g0_31"/>
<path d="M160.2,156.6H825.4v17.6H160.2Z" class="g0_31"/>
<path d="M682.4,335.9H823.2v17.6H682.4Z" class="g0_31"/>
<path d="M162.4,353.5h54.3v17.6H162.4Z" class="g0_31"/>
<path d="M440,353.5H823.2v17.6H440Z" class="g0_31"/>
<path d="M162.4,371.1H823.2v17.6H162.4Z" class="g0_31"/>
<path d="M162.4,388.7H823.2v17.6H162.4Z" class="g0_31"/>
<path d="M162.4,406.3H719v17.6H162.4Z" class="g0_31"/>
<path d="M733.7,406.3h89.5v17.6H733.7Z" class="g0_31"/>
<path d="M162.4,423.9H823.2v17.2H162.4Z" class="g0_31"/>
<path d="M162.4,441.1H823.2v17.6H162.4Z" class="g0_31"/>
<path d="M162.4,458.7H823.2v17.6H162.4Z" class="g0_31"/>
<path d="M162.4,476.3H823.2v17.6H162.4Z" class="g0_31"/>
<path d="M162.4,493.9H823.2v17.6H162.4Z" class="g0_31"/>
<path d="M162.4,511.5H823.2v17.6H162.4Z" class="g0_31"/>
<path d="M162.4,529.1H823.2v17.6H162.4Z" class="g0_31"/>
<path d="M162.4,546.7H823.2v17.6H162.4Z" class="g0_31"/>
<path d="M162.4,564.3H823.2v17.6H162.4Z" class="g0_31"/>
<path d="M162.4,581.9h77.8v17.6H162.4Z" class="g0_31"/>
<path d="M162.4,659.3h11.8v17.2H162.4Z" class="g0_31"/>
</svg>