<?xml version="1.0" encoding="UTF-8" standalone="no"?>
<!DOCTYPE svg PUBLIC "-//W3C//DTD SVG 1.1//EN"
"http://www.w3.org/Graphics/SVG/1.1/DTD/svg11.dtd">
<svg viewBox="0 0 935 1210" version="1.1" xmlns="http://www.w3.org/2000/svg" xmlns:xlink="http://www.w3.org/1999/xlink">
<defs>
<style type="text/css"><![CDATA[
.g0_86{
fill: #FFF;
}
]]></style>
</defs>
<path d="M160.2,104.1H825.4v17.3H160.2Z" class="g0_86"/>
<path d="M160.2,121.4H825.4V139H160.2Z" class="g0_86"/>
<path d="M138.6,560.6H825.4v21.3H138.6Z" class="g0_86"/>
<path d="M159.9,581.9H825v17.6H159.9Z" class="g0_86"/>
<path d="M159.9,599.5H825v17.6H159.9Z" class="g0_86"/>
<path d="M159.9,617.1H825v17.6H159.9Z" class="g0_86"/>
<path d="M159.9,634.7H825v20.2H159.9Z" class="g0_86"/>
<path d="M160.2,654.9H825.4v17.6H160.2Z" class="g0_86"/>
<path d="M160.2,672.5H825.4v17.6H160.2Z" class="g0_86"/>
<path d="M160.2,690.1H825.4v17.6H160.2Z" class="g0_86"/>
<path d="M160.2,707.7H825.4v17.6H160.2Z" class="g0_86"/>
<path d="M160.2,795.3H825.4v17.6H160.2Z" class="g0_86"/>
<path d="M160.2,812.9H825.4v17.6H160.2Z" class="g0_86"/>
<path d="M160.2,830.5H825.4v17.6H160.2Z" class="g0_86"/>
<path d="M160.2,848.1H825.4v17.6H160.2Z" class="g0_86"/>
<path d="M160.2,865.7H825.4v17.6H160.2Z" class="g0_86"/>
<path d="M160.2,883.3H825.4v17.6H160.2Z" class="g0_86"/>
<path d="M160.2,900.9H825.4v17.6H160.2Z" class="g0_86"/>
</svg>