<?xml version="1.0" encoding="UTF-8" standalone="no"?>
<!DOCTYPE svg PUBLIC "-//W3C//DTD SVG 1.1//EN"
"http://www.w3.org/Graphics/SVG/1.1/DTD/svg11.dtd">
<svg viewBox="0 0 935 1210" version="1.1" xmlns="http://www.w3.org/2000/svg" xmlns:xlink="http://www.w3.org/1999/xlink">
<defs>
<style type="text/css"><![CDATA[
.g0_142{
fill: #FFF;
}
]]></style>
</defs>
<path d="M162.4,367.4H823.2V385H162.4Z" class="g0_142"/>
<path d="M162.4,385H823.2v17.6H162.4Z" class="g0_142"/>
<path d="M162.4,402.6H823.2v17.6H162.4Z" class="g0_142"/>
<path d="M162.4,420.2H823.2v17.6H162.4Z" class="g0_142"/>
<path d="M162.4,437.8H343.2v17.6H162.4Z" class="g0_142"/>
<path d="M162.4,455.4H823.2V473H162.4Z" class="g0_142"/>
<path d="M162.4,473H823.2v17.6H162.4Z" class="g0_142"/>
<path d="M162.4,490.6H489.9v17.6H162.4Z" class="g0_142"/>
<path d="M162.4,726H823.2v17.6H162.4Z" class="g0_142"/>
<path d="M162.4,743.6H823.2v17.2H162.4Z" class="g0_142"/>
<path d="M162.4,760.8H823.2v17.6H162.4Z" class="g0_142"/>
<path d="M162.4,778.4H823.2V796H162.4Z" class="g0_142"/>
<path d="M162.4,796H404.8v17.6H162.4Z" class="g0_142"/>
<path d="M162.4,813.6H823.2v17.6H162.4Z" class="g0_142"/>
<path d="M162.4,831.2H823.2v17.6H162.4Z" class="g0_142"/>
<path d="M162.4,848.8H823.2v17.6H162.4Z" class="g0_142"/>
<path d="M162.4,866.4h315V884h-315Z" class="g0_142"/>
<path d="M162.4,884H823.2v17.6H162.4Z" class="g0_142"/>
<path d="M162.4,901.6H823.2v17.6H162.4Z" class="g0_142"/>
<path d="M162.4,919.2H823.2v17.6H162.4Z" class="g0_142"/>
<path d="M162.4,936.8H823.2v17.6H162.4Z" class="g0_142"/>
<path d="M162.4,954.4H771.5v17.3H162.4Z" class="g0_142"/>
<path d="M162.4,971.7H823.2v17.6H162.4Z" class="g0_142"/>
<path d="M162.4,989.3H823.2v17.6H162.4Z" class="g0_142"/>
<path d="M162.4,1006.9H823.2v17.6H162.4Z" class="g0_142"/>
<path d="M162.4,1024.5H823.2v17.6H162.4Z" class="g0_142"/>
<path d="M162.4,1042.1H367v17.6H162.4Z" class="g0_142"/>
<path d="M162.4,1059.7H823.2v17.6H162.4Z" class="g0_142"/>
<path d="M162.4,1077.3H457.2v17.6H162.4Z" class="g0_142"/>
</svg>