<?xml version="1.0" encoding="UTF-8" standalone="no"?>
<!DOCTYPE svg PUBLIC "-//W3C//DTD SVG 1.1//EN"
"http://www.w3.org/Graphics/SVG/1.1/DTD/svg11.dtd">
<svg viewBox="0 0 935 1210" version="1.1" xmlns="http://www.w3.org/2000/svg" xmlns:xlink="http://www.w3.org/1999/xlink">
<defs>
<style type="text/css"><![CDATA[
.g0_60{
fill: #FFF;
}
]]></style>
</defs>
<path d="M160.2,104.1H825.4v17.3H160.2Z" class="g0_60"/>
<path d="M160.2,121.4H825.4V139H160.2Z" class="g0_60"/>
<path d="M160.2,139H825.4v17.6H160.2Z" class="g0_60"/>
<path d="M160.2,156.6H825.4v17.6H160.2Z" class="g0_60"/>
<path d="M160.2,174.2H825.4v17.6H160.2Z" class="g0_60"/>
<path d="M160.2,191.8H825.4v17.6H160.2Z" class="g0_60"/>
<path d="M160.2,209.4H825.4V227H160.2Z" class="g0_60"/>
<path d="M160.2,227H825.4v17.6H160.2Z" class="g0_60"/>
<path d="M160.2,244.6H825.4v17.6H160.2Z" class="g0_60"/>
<path d="M160.2,262.2H825.4v17.6H160.2Z" class="g0_60"/>
<path d="M160.2,279.8H825.4v17.6H160.2Z" class="g0_60"/>
<path d="M117,933.2H825.4v17.6H117Z" class="g0_60"/>
<path d="M138.6,950.8H825.4v20.9H138.6Z" class="g0_60"/>
<path d="M138.6,971.7H825.4v21.2H138.6Z" class="g0_60"/>
<path d="M160.2,992.9H825.4v17.6H160.2Z" class="g0_60"/>
<path d="M160.2,1010.5H825.4v17.6H160.2Z" class="g0_60"/>
<path d="M160.2,1028.1H825.4v17.6H160.2Z" class="g0_60"/>
<path d="M160.2,1045.7H825.4v17.6H160.2Z" class="g0_60"/>
<path d="M160.2,1063.3H825.4v17.3H160.2Z" class="g0_60"/>
<path d="M160.2,1080.6H825.4v17.6H160.2Z" class="g0_60"/>
<path d="M160.2,1098.2H825.4v17.6H160.2Z" class="g0_60"/>
<path d="M160.2,1115.8H825.4v17.6H160.2Z" class="g0_60"/>
</svg>