<?xml version="1.0" encoding="UTF-8" standalone="no"?>
<!DOCTYPE svg PUBLIC "-//W3C//DTD SVG 1.1//EN"
"http://www.w3.org/Graphics/SVG/1.1/DTD/svg11.dtd">
<svg viewBox="0 0 935 1210" version="1.1" xmlns="http://www.w3.org/2000/svg" xmlns:xlink="http://www.w3.org/1999/xlink">
<defs>
<style type="text/css"><![CDATA[
.g0_73{
fill: #FFF;
}
]]></style>
</defs>
<path d="M160.2,654.9H825.4v16.8H160.2Z" class="g0_73"/>
<path d="M160.2,671.7H825.4v16.5H160.2Z" class="g0_73"/>
<path d="M160.2,688.2H825.4v16.9H160.2Z" class="g0_73"/>
<path d="M160.2,705.1H825.4V722H160.2Z" class="g0_73"/>
<path d="M160.2,722H825.4v16.5H160.2Z" class="g0_73"/>
<path d="M160.2,738.5H825.4v16.8H160.2Z" class="g0_73"/>
<path d="M160.2,755.3H825.4v16.5H160.2Z" class="g0_73"/>
<path d="M117,771.8H825.4v17.6H117Z" class="g0_73"/>
<path d="M162.4,845.5H370v17.6H162.4Z" class="g0_73"/>
<path d="M377.7,845.5H793.8v17.6H377.7Z" class="g0_73"/>
<path d="M160.2,1064.4H825.4V1082H160.2Z" class="g0_73"/>
<path d="M160.2,1082H825.4v17.6H160.2Z" class="g0_73"/>
</svg>