<?xml version="1.0" encoding="UTF-8" standalone="no"?>
<!DOCTYPE svg PUBLIC "-//W3C//DTD SVG 1.1//EN"
"http://www.w3.org/Graphics/SVG/1.1/DTD/svg11.dtd">
<svg viewBox="0 0 935 1210" version="1.1" xmlns="http://www.w3.org/2000/svg" xmlns:xlink="http://www.w3.org/1999/xlink">
<defs>
<style type="text/css"><![CDATA[
.g0_36{
fill: #FFF;
}
.g1_36{
fill: #000;
}
]]></style>
</defs>
<path d="M138.6,191.8H825.4V213H138.6Z" class="g0_36"/>
<path d="M140.8,191.8h51.3V213H140.8Z" class="g0_36"/>
<path d="M138.6,213H825.4v20.9H138.6Z" class="g0_36"/>
<path d="M162.4,233.9h11.8v17.6H162.4Z" class="g0_36"/>
<path d="M162.4,251.5h82.9v17.6H162.4Z" class="g0_36"/>
<path d="M162.4,269.1H432.7v17.6H162.4Z" class="g0_36"/>
<path d="M162.4,304.3H656.3v17.6H162.4Z" class="g0_36"/>
<path d="M162.4,321.9H823.2v17.6H162.4Z" class="g0_36"/>
<path d="M162.4,339.5H823.2v17.3H162.4Z" class="g0_36"/>
<path d="M162.4,356.8H823.2v17.6H162.4Z" class="g0_36"/>
<path d="M162.4,374.4H823.2V392H162.4Z" class="g0_36"/>
<path d="M162.4,392H823.2v17.6H162.4Z" class="g0_36"/>
<path d="M162.4,409.6H823.2v17.6H162.4Z" class="g0_36"/>
<path d="M162.4,427.2H335.5v17.6H162.4Z" class="g0_36"/>
<path d="M162.4,509.7H332.9v1.4H162.4Z" class="g1_36"/>
</svg>