<?xml version="1.0" encoding="UTF-8" standalone="no"?>
<!DOCTYPE svg PUBLIC "-//W3C//DTD SVG 1.1//EN"
"http://www.w3.org/Graphics/SVG/1.1/DTD/svg11.dtd">
<svg viewBox="0 0 935 1210" version="1.1" xmlns="http://www.w3.org/2000/svg" xmlns:xlink="http://www.w3.org/1999/xlink">
<defs>
<style type="text/css"><![CDATA[
.g0_14{
fill: #000;
}
.g1_14{
fill: #FFF;
}
]]></style>
</defs>
<path d="M162.4,185.2H326.3v1.4H162.4Z" class="g0_14"/>
<path d="M146.7,239.8h42.1v21.3H146.7Z" class="g1_14"/>
<path d="M160.2,261.1H825.4v17.2H160.2Z" class="g1_14"/>
<path d="M158.4,278.3h667v17.6h-667Z" class="g1_14"/>
<path d="M160.2,295.9H825.4v17.6H160.2Z" class="g1_14"/>
<path d="M160.2,313.5H825.4v17.6H160.2Z" class="g1_14"/>
<path d="M160.2,331.1H825.4v17.6H160.2Z" class="g1_14"/>
<path d="M160.2,348.7H825.4v17.6H160.2Z" class="g1_14"/>
<path d="M160.2,366.3H825.4v17.6H160.2Z" class="g1_14"/>
<path d="M160.2,383.9H825.4v17.6H160.2Z" class="g1_14"/>
<path d="M160.2,401.5H825.4v17.6H160.2Z" class="g1_14"/>
<path d="M160.2,419.1H825.4v17.6H160.2Z" class="g1_14"/>
<path d="M160.2,436.7H825.4v17.6H160.2Z" class="g1_14"/>
<path d="M160.2,454.3H825.4v17.2H160.2Z" class="g1_14"/>
<path d="M160.2,471.5H825.4v17.6H160.2Z" class="g1_14"/>
<path d="M160.2,489.1H825.4v17.6H160.2Z" class="g1_14"/>
<path d="M160.2,506.7H825.4v17.6H160.2Z" class="g1_14"/>
<path d="M160.2,524.3H825.4v17.6H160.2Z" class="g1_14"/>
<path d="M160.2,541.9H825.4v17.6H160.2Z" class="g1_14"/>
<path d="M160.2,559.5H825.4v17.6H160.2Z" class="g1_14"/>
<path d="M160.2,577.1H825.4v17.6H160.2Z" class="g1_14"/>
<path d="M160.2,594.7H825.4v17.6H160.2Z" class="g1_14"/>
<path d="M160.2,612.3H825.4v17.6H160.2Z" class="g1_14"/>
<path d="M160.2,629.9H825.4v17.6H160.2Z" class="g1_14"/>
<path d="M160.2,647.5H825.4v17.6H160.2Z" class="g1_14"/>
<path d="M160.2,665.1H825.4v17.3H160.2Z" class="g1_14"/>
<path d="M160.2,682.4H825.4V700H160.2Z" class="g1_14"/>
<path d="M160.2,700H825.4v17.6H160.2Z" class="g1_14"/>
<path d="M160.2,717.6H825.4v17.6H160.2Z" class="g1_14"/>
<path d="M160.2,735.2H825.4v17.6H160.2Z" class="g1_14"/>
<path d="M160.2,752.8H825.4v17.6H160.2Z" class="g1_14"/>
<path d="M160.2,770.4H825.4V788H160.2Z" class="g1_14"/>
<path d="M146.7,823.2h42.1v20.9H146.7Z" class="g1_14"/>
</svg>